<?xml version="1.0" standalone="no"?>
<!DOCTYPE svg PUBLIC "-//W3C//DTD SVG 20010904//EN"
 "http://www.w3.org/TR/2001/REC-SVG-20010904/DTD/svg10.dtd">
<svg version="1.0" xmlns="http://www.w3.org/2000/svg"
 width="570.000000pt" height="655.000000pt" viewBox="0 0 570.000000 655.000000"
 preserveAspectRatio="xMidYMid meet">

<g transform="translate(0.000000,655.000000) scale(0.100000,-0.100000)"
fill="#000000" stroke="none">
<path d="M2505 6101 c-273 -57 -555 -235 -715 -451 -27 -36 -88 -134 -136
-216 -159 -273 -198 -310 -432 -421 -64 -30 -162 -77 -217 -103 -335 -161
-488 -355 -502 -637 -10 -192 47 -344 182 -478 72 -73 148 -125 162 -112 2 3
-18 36 -47 72 -64 84 -94 143 -120 236 -38 138 -18 321 47 441 62 114 200 221
472 367 239 128 323 191 393 293 40 60 57 97 144 318 123 313 283 442 633 511
138 27 342 36 451 20 90 -14 230 -62 302 -104 110 -64 254 -192 329 -291 18
-25 37 -46 42 -46 23 -1 -17 109 -76 207 -49 81 -166 204 -240 255 -147 100
-288 146 -472 153 -83 4 -132 0 -200 -14z"/>
<path d="M3594 5388 c45 -153 49 -177 49 -298 0 -110 -3 -134 -26 -202 -27
-80 -97 -224 -210 -438 -95 -181 -114 -268 -81 -380 20 -67 54 -117 166 -246
234 -269 315 -393 339 -519 7 -35 9 -99 5 -152 -3 -51 -2 -93 2 -93 5 0 18 13
29 28 73 99 105 230 84 353 -26 157 -105 291 -263 444 -235 228 -244 238 -261
289 -22 65 -21 114 4 188 29 88 79 158 197 278 136 139 165 194 170 330 2 53
-1 122 -8 153 -16 79 -72 187 -125 242 -49 50 -82 60 -71 23z"/>
<path d="M3372 5248 c-5 -7 -17 -29 -27 -48 -61 -120 -184 -223 -315 -264
-102 -33 -189 -44 -437 -56 -512 -25 -686 -74 -854 -240 -102 -100 -143 -183
-144 -284 0 -57 5 -81 25 -120 28 -55 58 -77 40 -31 -18 47 -12 136 14 190 27
58 119 148 200 194 120 69 237 94 521 111 562 34 765 104 905 312 36 55 72
145 84 216 6 35 4 39 -12 20z"/>
<path d="M3356 5030 c-2 -8 -12 -48 -21 -89 -22 -104 -34 -128 -116 -233 -39
-51 -79 -109 -87 -128 -10 -21 -19 -79 -22 -145 -10 -167 -37 -214 -195 -332
-81 -61 -216 -133 -249 -133 -14 0 -74 45 -167 126 -275 240 -303 274 -354
424 -33 96 -50 92 -42 -11 9 -131 36 -201 112 -296 93 -116 271 -273 367 -323
73 -39 152 -19 243 62 73 64 262 259 286 293 33 50 59 116 78 197 14 60 30 94
78 165 107 156 117 182 116 299 0 96 -14 161 -27 124z"/>
<path d="M2327 3923 c-31 -88 -36 -192 -13 -246 32 -78 134 -138 437 -260 301
-121 271 -99 605 -447 61 -63 121 -124 133 -135 l22 -19 -10 26 c-59 155 -264
459 -374 553 -57 49 -191 112 -372 175 -232 80 -257 89 -305 113 -63 31 -74
59 -78 200 -2 64 -7 117 -11 117 -4 0 -20 -35 -34 -77z"/>
<path d="M1170 3723 c-154 -16 -328 -62 -436 -113 -197 -95 -267 -223 -268
-490 0 -270 85 -592 231 -870 56 -107 92 -164 99 -157 2 2 -5 39 -16 83 -133
512 -181 956 -125 1142 27 90 118 161 300 237 96 39 280 101 400 135 44 12 84
26 90 31 9 9 -199 10 -275 2z"/>
<path d="M1308 3553 c-52 -59 -135 -238 -182 -393 -75 -246 -75 -599 -1 -880
46 -172 81 -256 323 -776 157 -337 214 -540 215 -764 0 -177 -32 -326 -110
-503 -19 -43 -33 -81 -31 -83 7 -6 73 87 116 162 98 176 148 382 139 574 -13
272 -67 436 -350 1066 -100 223 -165 411 -198 579 -21 105 -24 149 -24 345 0
175 4 246 18 320 20 108 72 291 94 333 17 34 12 44 -9 20z"/>
<path d="M1643 2813 c12 -11 379 -153 982 -378 224 -84 436 -179 705 -318 327
-168 579 -321 580 -352 0 -13 -63 -115 -114 -185 -112 -153 -211 -226 -409
-300 -31 -12 -57 -24 -57 -27 0 -8 84 6 171 27 160 41 265 105 396 243 84 89
159 193 169 234 27 104 -260 330 -693 547 -51 25 -93 52 -93 59 0 17 57 71 97
91 50 25 102 75 125 120 29 57 128 153 183 176 88 38 220 20 329 -44 66 -39
164 -144 197 -212 31 -62 31 -64 27 -191 -6 -171 -31 -237 -131 -336 -37 -38
-66 -71 -64 -73 9 -10 117 38 155 69 116 94 169 222 160 394 -3 77 -9 101 -37
157 -66 134 -189 218 -399 272 -267 69 -403 26 -496 -157 -23 -44 -55 -88 -84
-114 -45 -40 -54 -56 -78 -143 -3 -9 -20 -4 -63 17 -289 146 -849 310 -1390
407 -139 25 -179 29 -168 17z"/>
<path d="M3935 1498 c-2 -7 -20 -64 -39 -126 -46 -145 -76 -208 -127 -266
-104 -118 -322 -188 -628 -204 l-145 -7 68 -23 c260 -86 566 -38 738 117 96
86 137 197 145 394 5 112 1 154 -12 115z"/>
<path d="M1850 785 c25 -30 131 -97 229 -145 311 -153 615 -172 966 -59 103
32 236 98 313 153 52 38 68 62 35 52 -145 -42 -414 -86 -657 -106 -197 -17
-448 12 -746 85 -165 40 -155 39 -140 20z"/>
</g>
</svg>
